<?xml version="1.0" encoding="utf-8"?>
<!-- Generator: Adobe Illustrator 17.1.0, SVG Export Plug-In . SVG Version: 6.00 Build 0)  -->
<!DOCTYPE svg PUBLIC "-//W3C//DTD SVG 1.1//EN" "http://www.w3.org/Graphics/SVG/1.1/DTD/svg11.dtd">
<svg version="1.1" id="Laag_1" xmlns="http://www.w3.org/2000/svg" xmlns:xlink="http://www.w3.org/1999/xlink" x="0px" y="0px"
	 viewBox="52.5 -39.333 54.875 111.458" enable-background="new 52.5 -39.333 54.875 111.458" xml:space="preserve">
<g>
	<g>
		<g opacity="0.5">
			<g>
				<g>
					<path d="M96.588-18.232H63.469c-4.751,0-8.602,3.852-8.602,8.602v33.119c0,4.752,3.852,8.602,8.602,8.602h33.119
						c4.751,0,8.602-3.851,8.602-8.602V-9.63C105.19-14.381,101.339-18.232,96.588-18.232 M96.588-17.619
						c4.405,0,7.989,3.584,7.989,7.989v33.119c0,4.405-3.583,7.99-7.989,7.99H63.469c-4.405,0-7.989-3.584-7.989-7.99V-9.63
						c0-4.405,3.583-7.989,7.989-7.989H96.588z"/>
				</g>
				<g>
					<path d="M76.517,8.298v0.029C76.511,8.339,76.504,8.349,76.5,8.36c-0.08,0.214-0.156,0.431-0.243,0.642
						c-0.276,0.665-0.648,1.273-1.079,1.846c-0.266,0.354-0.544,0.697-0.905,0.961c-0.391,0.286-0.824,0.413-1.31,0.329
						c-0.301-0.051-0.587-0.148-0.867-0.264c-0.406-0.168-0.825-0.286-1.269-0.281c-0.394,0.004-0.769,0.101-1.136,0.239
						c-0.247,0.092-0.494,0.186-0.744,0.265c-0.487,0.153-0.953,0.106-1.376-0.19c-0.173-0.121-0.336-0.259-0.489-0.405
						c-0.281-0.266-0.508-0.577-0.735-0.888c-0.944-1.298-1.498-2.747-1.684-4.338c-0.075-0.641-0.064-1.28,0.061-1.916
						c0.168-0.856,0.53-1.615,1.163-2.225c0.665-0.641,1.461-0.986,2.391-0.992c0.392-0.003,0.763,0.116,1.128,0.244
						c0.339,0.117,0.679,0.237,1.018,0.354c0.157,0.054,0.313,0.053,0.471-0.004c0.319-0.115,0.642-0.222,0.961-0.337
						c0.36-0.13,0.726-0.236,1.106-0.284c0.329-0.041,0.654-0.006,0.979,0.054c0.677,0.127,1.28,0.401,1.778,0.887
						c0.156,0.151,0.294,0.317,0.416,0.5c-0.025,0.018-0.044,0.032-0.065,0.045C75.659,2.87,75.3,3.19,75.035,3.605
						c-0.493,0.769-0.574,1.607-0.39,2.481c0.153,0.727,0.553,1.304,1.126,1.767C75.999,8.035,76.243,8.192,76.517,8.298"/>
				</g>
				<g>
					<path d="M73.479-2.414c0.021,0.277,0.013,0.551-0.037,0.825c-0.103,0.569-0.358,1.066-0.721,1.51
						c-0.315,0.385-0.686,0.701-1.155,0.885c-0.324,0.127-0.66,0.175-1.024,0.142c0-0.139-0.005-0.276,0.001-0.413
						c0.028-0.67,0.299-1.241,0.713-1.754c0.497-0.615,1.146-0.98,1.91-1.157c0.069-0.016,0.139-0.025,0.209-0.038H73.479z"/>
				</g>
				<g>
					<path d="M102.574,58.912H58.159c-1.641,0-2.074-1.356-2.074-2.074V40.027c0-1.641,1.357-2.074,2.074-2.074h44.415
						c1.641,0,2.074,1.356,2.074,2.074v16.812C104.647,58.479,103.291,58.912,102.574,58.912z M58.159,38.748
						c-0.211,0.003-1.278,0.075-1.278,1.278v16.812c0.002,0.212,0.075,1.278,1.278,1.278h44.415
						c0.215-0.003,1.278-0.076,1.278-1.278V40.027c-0.003-0.212-0.075-1.278-1.278-1.278L58.159,38.748L58.159,38.748z"/>
				</g>
			</g>
		</g>
	</g>
</g>
<g>
	<rect x="52.5" y="-34.732" fill="none" width="54.875" height="33"/>
	<path fill="#666666" d="M56.945-34.732h0.592v4.944h0.032c0.117-0.32,0.283-0.6,0.497-0.84c0.214-0.24,0.46-0.443,0.738-0.608
		c0.277-0.165,0.577-0.288,0.897-0.368c0.321-0.08,0.652-0.12,0.994-0.12c0.61,0,1.137,0.107,1.58,0.32
		c0.443,0.214,0.815,0.507,1.114,0.88c0.3,0.374,0.521,0.808,0.666,1.304s0.217,1.032,0.217,1.608c0,0.982-0.134,1.768-0.401,2.36
		c-0.268,0.592-0.588,1.045-0.962,1.36c-0.374,0.315-0.765,0.523-1.171,0.624s-0.754,0.152-1.043,0.152
		c-0.545,0-1.008-0.085-1.387-0.256c-0.38-0.17-0.692-0.371-0.938-0.6c-0.246-0.229-0.433-0.456-0.562-0.68
		c-0.128-0.224-0.208-0.389-0.24-0.496h-0.031v1.84h-0.593V-34.732z M60.697-23.645c0.546,0,1.005-0.117,1.38-0.352
		c0.374-0.234,0.679-0.542,0.914-0.92s0.406-0.805,0.514-1.28c0.106-0.474,0.16-0.946,0.16-1.416c0-0.458-0.062-0.901-0.185-1.328
		s-0.31-0.808-0.562-1.144c-0.251-0.336-0.562-0.605-0.93-0.808c-0.369-0.203-0.8-0.304-1.292-0.304c-0.534,0-1,0.091-1.396,0.272
		c-0.396,0.182-0.722,0.432-0.979,0.752c-0.257,0.32-0.449,0.699-0.577,1.136c-0.129,0.438-0.192,0.912-0.192,1.424
		c0,0.501,0.059,0.992,0.176,1.472c0.118,0.48,0.303,0.904,0.554,1.272s0.575,0.664,0.971,0.888
		C59.649-23.757,60.131-23.645,60.697-23.645z"/>
	<path fill="#666666" d="M72.209-23.309h-0.608v-1.76h-0.032c-0.106,0.309-0.259,0.584-0.456,0.824
		c-0.197,0.24-0.427,0.445-0.688,0.616c-0.262,0.17-0.547,0.298-0.856,0.384c-0.309,0.085-0.624,0.128-0.943,0.128
		c-0.48,0-0.889-0.059-1.225-0.176s-0.61-0.272-0.823-0.464c-0.214-0.192-0.382-0.408-0.504-0.648
		c-0.123-0.24-0.211-0.482-0.265-0.728c-0.054-0.245-0.085-0.482-0.096-0.712c-0.011-0.229-0.016-0.429-0.016-0.6v-5.088h0.607v5.2
		c0,0.213,0.016,0.472,0.048,0.776c0.032,0.304,0.126,0.598,0.28,0.88c0.154,0.283,0.387,0.526,0.696,0.728
		c0.309,0.203,0.746,0.304,1.312,0.304c0.459,0,0.872-0.085,1.24-0.256c0.368-0.171,0.68-0.408,0.936-0.712
		c0.257-0.304,0.451-0.667,0.584-1.088c0.134-0.421,0.2-0.882,0.2-1.384v-4.448h0.608V-23.309z"/>
	<path fill="#666666" d="M74.145-33.084v-1.648h0.608v1.648H74.145z M74.145-23.309v-8.224h0.608v8.224H74.145z"/>
	<path fill="#666666" d="M77.441-34.732v11.424h-0.608v-11.424H77.441z"/>
	<path fill="#666666" d="M82.4-31.004h-1.792v5.744c0,0.331,0.037,0.592,0.112,0.784c0.074,0.192,0.189,0.339,0.344,0.44
		c0.154,0.102,0.341,0.163,0.56,0.184s0.473,0.027,0.761,0.016v0.528c-0.31,0.021-0.611,0.019-0.904-0.008
		c-0.294-0.027-0.552-0.106-0.776-0.24c-0.224-0.133-0.402-0.333-0.535-0.6c-0.134-0.266-0.19-0.634-0.169-1.104v-5.744h-1.52
		v-0.528H80v-2.56h0.608v2.56H82.4V-31.004z"/>
	<path fill="#666666" d="M87.072-31.004v-0.528h1.472v-1.696c0-0.288,0.048-0.536,0.145-0.744c0.096-0.208,0.227-0.376,0.392-0.504
		s0.357-0.224,0.576-0.288s0.45-0.096,0.696-0.096c0.181,0,0.421,0.026,0.72,0.08v0.528c-0.299-0.053-0.539-0.08-0.72-0.08
		c-0.342,0-0.627,0.078-0.856,0.232c-0.229,0.155-0.344,0.461-0.344,0.92v1.648h1.712v0.528h-1.712v7.696h-0.608v-7.696H87.072z"/>
	<path fill="#666666" d="M91.439-27.42c0-0.587,0.083-1.139,0.248-1.656c0.165-0.517,0.408-0.973,0.729-1.368
		c0.319-0.394,0.714-0.706,1.184-0.936s1.008-0.344,1.616-0.344s1.146,0.115,1.616,0.344c0.469,0.229,0.863,0.542,1.184,0.936
		c0.32,0.395,0.562,0.851,0.729,1.368c0.165,0.518,0.248,1.069,0.248,1.656c0,0.586-0.083,1.141-0.248,1.664
		c-0.166,0.523-0.408,0.979-0.729,1.368c-0.32,0.39-0.715,0.699-1.184,0.928c-0.47,0.229-1.008,0.344-1.616,0.344
		s-1.146-0.115-1.616-0.344c-0.47-0.229-0.864-0.539-1.184-0.928c-0.32-0.389-0.563-0.845-0.729-1.368
		C91.522-26.279,91.439-26.834,91.439-27.42z M92.048-27.42c0,0.491,0.069,0.962,0.208,1.416c0.139,0.453,0.341,0.856,0.607,1.208
		c0.267,0.352,0.598,0.632,0.992,0.84s0.849,0.312,1.36,0.312s0.965-0.104,1.36-0.312c0.395-0.208,0.725-0.488,0.991-0.84
		c0.267-0.352,0.47-0.755,0.608-1.208c0.139-0.454,0.208-0.925,0.208-1.416s-0.069-0.963-0.208-1.416
		c-0.139-0.454-0.342-0.856-0.608-1.208s-0.597-0.632-0.991-0.84c-0.396-0.208-0.849-0.312-1.36-0.312s-0.966,0.104-1.36,0.312
		s-0.726,0.488-0.992,0.84s-0.469,0.754-0.607,1.208C92.117-28.383,92.048-27.911,92.048-27.42z"/>
	<path fill="#666666" d="M101.023-29.708h0.048c0.075-0.267,0.211-0.518,0.408-0.752c0.197-0.235,0.438-0.438,0.72-0.608
		c0.283-0.171,0.598-0.301,0.944-0.392s0.706-0.131,1.08-0.12v0.608c-0.32-0.042-0.686-0.01-1.096,0.096
		c-0.411,0.106-0.803,0.341-1.177,0.704c-0.149,0.16-0.279,0.314-0.392,0.464s-0.205,0.314-0.28,0.496
		c-0.074,0.181-0.133,0.384-0.176,0.608s-0.069,0.491-0.08,0.8v4.496h-0.607v-8.224h0.607V-29.708z"/>
</g>
<g>
	<rect x="55.48" y="-1.365" fill="none" width="39.645" height="33"/>
	<path fill="#666666" d="M85.591,2.456v1.023h-2.026v6.716c0,0.399,0.055,0.711,0.164,0.936c0.109,0.226,0.383,0.351,0.82,0.376
		c0.348,0,0.695-0.019,1.042-0.058v1.023c-0.18,0-0.36,0.006-0.54,0.019c-0.181,0.013-0.36,0.02-0.54,0.02
		c-0.812,0-1.377-0.158-1.699-0.473c-0.321-0.315-0.476-0.897-0.463-1.747V3.479h-1.737V2.456h1.737v-2.991h1.216v2.991H85.591z"/>
	<path fill="#666666" d="M87.579,2.456l3.127,8.743h0.038l3.088-8.743h1.255l-3.725,9.959h-1.294l-3.84-9.959H87.579z"/>
</g>
<g>
	<rect x="59.575" y="44.948" fill="none" width="47.8" height="11.385"/>
	<path fill="#666666" d="M60.17,47.112c0.144-0.449,0.358-0.848,0.646-1.194c0.286-0.347,0.643-0.624,1.069-0.83
		c0.427-0.207,0.924-0.311,1.49-0.311s1.063,0.104,1.49,0.311c0.427,0.206,0.783,0.483,1.07,0.83
		c0.286,0.347,0.501,0.745,0.645,1.194c0.144,0.45,0.215,0.919,0.215,1.405s-0.071,0.955-0.215,1.405s-0.358,0.849-0.645,1.194
		c-0.287,0.348-0.644,0.622-1.07,0.825s-0.924,0.306-1.49,0.306s-1.063-0.103-1.49-0.306s-0.783-0.478-1.069-0.825
		c-0.287-0.346-0.502-0.744-0.646-1.194s-0.215-0.919-0.215-1.405S60.026,47.562,60.17,47.112z M61.045,49.583
		c0.094,0.35,0.24,0.665,0.44,0.944c0.2,0.28,0.456,0.505,0.77,0.676c0.313,0.17,0.687,0.255,1.12,0.255s0.807-0.085,1.12-0.255
		c0.313-0.171,0.57-0.396,0.771-0.676c0.199-0.279,0.346-0.595,0.439-0.944c0.094-0.351,0.14-0.705,0.14-1.065
		s-0.046-0.715-0.14-1.064c-0.094-0.351-0.24-0.665-0.439-0.945c-0.2-0.28-0.457-0.505-0.771-0.675s-0.687-0.255-1.12-0.255
		s-0.807,0.085-1.12,0.255s-0.569,0.395-0.77,0.675s-0.347,0.595-0.44,0.945c-0.093,0.35-0.14,0.704-0.14,1.064
		S60.952,49.232,61.045,49.583z"/>
	<path fill="#666666" d="M70.931,45.923c-0.317-0.23-0.723-0.345-1.216-0.345c-0.199,0-0.396,0.02-0.59,0.06s-0.365,0.106-0.515,0.2
		c-0.15,0.093-0.271,0.218-0.36,0.375c-0.09,0.156-0.135,0.352-0.135,0.585c0,0.22,0.065,0.398,0.195,0.535s0.303,0.248,0.52,0.335
		c0.217,0.086,0.462,0.158,0.735,0.215s0.552,0.118,0.835,0.185c0.283,0.067,0.562,0.146,0.835,0.235s0.519,0.212,0.734,0.365
		c0.217,0.153,0.391,0.347,0.521,0.58s0.195,0.526,0.195,0.88c0,0.38-0.085,0.705-0.255,0.975c-0.171,0.271-0.389,0.49-0.655,0.66
		s-0.565,0.293-0.896,0.37c-0.33,0.076-0.658,0.115-0.984,0.115c-0.4,0-0.778-0.051-1.136-0.15c-0.356-0.1-0.67-0.252-0.939-0.455
		c-0.271-0.203-0.483-0.463-0.64-0.78c-0.157-0.316-0.235-0.691-0.235-1.125h0.899c0,0.301,0.059,0.559,0.176,0.775
		c0.116,0.217,0.27,0.395,0.46,0.535c0.189,0.14,0.411,0.243,0.665,0.31c0.253,0.067,0.513,0.101,0.779,0.101
		c0.214,0,0.429-0.021,0.646-0.061s0.411-0.108,0.585-0.205c0.173-0.097,0.313-0.228,0.42-0.395s0.16-0.38,0.16-0.641
		c0-0.246-0.065-0.446-0.195-0.6s-0.304-0.278-0.52-0.375c-0.217-0.097-0.462-0.175-0.735-0.235
		c-0.273-0.06-0.552-0.121-0.835-0.185s-0.562-0.137-0.835-0.22c-0.273-0.084-0.519-0.193-0.735-0.33s-0.39-0.313-0.52-0.53
		s-0.195-0.488-0.195-0.815c0-0.359,0.073-0.671,0.22-0.935c0.147-0.264,0.342-0.479,0.585-0.65c0.244-0.17,0.521-0.296,0.83-0.38
		c0.311-0.083,0.629-0.125,0.955-0.125c0.367,0,0.707,0.044,1.021,0.13c0.313,0.087,0.588,0.224,0.825,0.41
		c0.236,0.187,0.423,0.422,0.56,0.705s0.212,0.622,0.225,1.016h-0.899C71.432,46.524,71.247,46.152,70.931,45.923z"/>
	<path fill="#666666" d="M74.765,44.947h1.14l1.78,2.79l1.86-2.79h1.06l-2.359,3.471l2.51,3.67h-1.16l-1.92-2.95l-1.98,2.95h-1.06
		l2.48-3.67L74.765,44.947z"/>
	<path fill="#666666" d="M85.035,52.088v-5.08h-1.84v-0.68c0.24,0,0.474-0.019,0.7-0.056c0.227-0.036,0.432-0.104,0.614-0.205
		c0.184-0.1,0.339-0.236,0.466-0.41c0.126-0.173,0.213-0.393,0.26-0.659h0.649v7.09H85.035z"/>
	<path fill="#666666" d="M87.726,47.798c0.013-0.28,0.046-0.554,0.1-0.82s0.13-0.52,0.229-0.76c0.101-0.24,0.237-0.45,0.41-0.63
		c0.174-0.181,0.392-0.323,0.655-0.431c0.264-0.106,0.578-0.159,0.945-0.159c0.366,0,0.682,0.053,0.944,0.159
		c0.264,0.107,0.482,0.25,0.655,0.431c0.174,0.18,0.311,0.39,0.41,0.63s0.177,0.493,0.229,0.76c0.054,0.267,0.087,0.54,0.101,0.82
		c0.013,0.28,0.02,0.55,0.02,0.81s-0.007,0.53-0.02,0.811c-0.014,0.279-0.047,0.553-0.101,0.819
		c-0.053,0.267-0.13,0.519-0.229,0.755c-0.1,0.237-0.236,0.445-0.41,0.625c-0.173,0.181-0.39,0.322-0.649,0.426
		c-0.261,0.103-0.577,0.154-0.95,0.154c-0.367,0-0.682-0.052-0.945-0.154c-0.264-0.104-0.481-0.245-0.655-0.426
		c-0.173-0.18-0.31-0.388-0.41-0.625c-0.1-0.236-0.176-0.488-0.229-0.755s-0.087-0.54-0.1-0.819
		c-0.014-0.28-0.021-0.551-0.021-0.811S87.712,48.078,87.726,47.798z M88.63,49.492c0.017,0.33,0.07,0.641,0.16,0.931
		s0.235,0.535,0.436,0.734c0.199,0.2,0.479,0.301,0.84,0.301c0.359,0,0.64-0.101,0.84-0.301c0.2-0.199,0.345-0.444,0.435-0.734
		s0.144-0.601,0.16-0.931c0.017-0.329,0.025-0.628,0.025-0.895c0-0.173-0.002-0.365-0.005-0.575c-0.004-0.21-0.021-0.42-0.051-0.63
		c-0.029-0.21-0.073-0.415-0.13-0.615c-0.057-0.199-0.14-0.375-0.25-0.524c-0.109-0.15-0.248-0.271-0.415-0.365
		c-0.166-0.094-0.37-0.14-0.609-0.14c-0.24,0-0.443,0.046-0.61,0.14s-0.305,0.215-0.415,0.365c-0.11,0.149-0.193,0.325-0.25,0.524
		c-0.057,0.2-0.1,0.405-0.13,0.615s-0.047,0.42-0.05,0.63c-0.004,0.21-0.005,0.402-0.005,0.575
		C88.605,48.864,88.613,49.163,88.63,49.492z"/>
	<path fill="#666666" d="M94.185,50.978v1.11h-1.11v-1.11H94.185z"/>
	<path fill="#666666" d="M96.185,51.178c0.247,0.187,0.54,0.28,0.88,0.28c0.521,0,0.91-0.226,1.17-0.676
		c0.261-0.449,0.403-1.138,0.431-2.064l-0.021-0.021c-0.16,0.301-0.387,0.539-0.68,0.716c-0.294,0.177-0.613,0.265-0.96,0.265
		c-0.36,0-0.68-0.059-0.96-0.175c-0.28-0.117-0.515-0.278-0.705-0.485c-0.19-0.206-0.333-0.456-0.43-0.75
		c-0.097-0.293-0.146-0.613-0.146-0.96c0-0.34,0.057-0.651,0.17-0.935s0.273-0.527,0.48-0.73c0.206-0.203,0.453-0.361,0.74-0.475
		c0.286-0.113,0.6-0.17,0.939-0.17c0.333,0,0.646,0.052,0.94,0.154c0.293,0.104,0.55,0.282,0.77,0.535
		c0.22,0.254,0.396,0.599,0.525,1.035s0.194,0.992,0.194,1.665c0,1.227-0.194,2.168-0.585,2.825
		c-0.39,0.656-1.015,0.984-1.875,0.984c-0.593,0-1.086-0.149-1.479-0.449c-0.394-0.301-0.617-0.757-0.67-1.37h0.85
		C95.798,50.725,95.938,50.991,96.185,51.178z M98.42,46.748c-0.063-0.193-0.157-0.365-0.28-0.516
		c-0.123-0.149-0.274-0.268-0.455-0.354c-0.18-0.087-0.39-0.13-0.63-0.13c-0.253,0-0.469,0.046-0.645,0.14
		c-0.177,0.094-0.32,0.219-0.431,0.375c-0.109,0.156-0.189,0.335-0.239,0.535c-0.051,0.2-0.075,0.41-0.075,0.63
		c0,0.193,0.035,0.38,0.104,0.56c0.07,0.181,0.167,0.341,0.29,0.48s0.271,0.252,0.44,0.335s0.358,0.125,0.564,0.125
		c0.221,0,0.42-0.042,0.601-0.125c0.18-0.083,0.333-0.196,0.46-0.34c0.126-0.144,0.223-0.311,0.29-0.5
		c0.066-0.19,0.1-0.389,0.1-0.596C98.515,47.147,98.483,46.941,98.42,46.748z"/>
</g>
<g>
	<rect x="52.475" y="63.105" fill="none" width="54.9" height="11.385"/>
	<path fill="#666666" d="M59.25,63.104h0.63l2.79,6.65h0.021l2.76-6.65h0.63v7.141h-0.44v-6.601h-0.02l-2.72,6.601h-0.44
		l-2.75-6.601h-0.02v6.601h-0.44V63.104z"/>
	<path fill="#666666" d="M70.779,69.225h-0.02c-0.061,0.153-0.146,0.299-0.26,0.436c-0.114,0.137-0.252,0.258-0.415,0.364
		c-0.164,0.107-0.349,0.19-0.556,0.25c-0.206,0.061-0.434,0.091-0.68,0.091c-0.547,0-0.97-0.119-1.271-0.355
		c-0.3-0.236-0.449-0.602-0.449-1.095c0-0.3,0.06-0.545,0.18-0.735c0.12-0.189,0.271-0.34,0.455-0.45
		c0.184-0.109,0.387-0.188,0.61-0.234c0.223-0.047,0.438-0.08,0.645-0.101l0.59-0.05c0.273-0.02,0.488-0.052,0.646-0.095
		c0.156-0.043,0.274-0.104,0.354-0.18c0.08-0.077,0.13-0.176,0.15-0.296c0.02-0.119,0.03-0.27,0.03-0.449
		c0-0.141-0.027-0.271-0.08-0.391c-0.054-0.12-0.137-0.227-0.25-0.319c-0.114-0.094-0.261-0.167-0.44-0.221
		c-0.18-0.053-0.4-0.08-0.66-0.08c-0.46,0-0.831,0.114-1.115,0.341c-0.283,0.227-0.438,0.569-0.465,1.029h-0.38
		c0.026-0.566,0.208-0.991,0.545-1.274s0.815-0.425,1.436-0.425s1.071,0.121,1.354,0.364c0.283,0.244,0.425,0.562,0.425,0.955v2.99
		c0,0.073,0.002,0.146,0.006,0.22c0.003,0.073,0.015,0.141,0.034,0.2c0.021,0.06,0.054,0.108,0.101,0.146
		c0.046,0.036,0.113,0.055,0.2,0.055c0.066,0,0.159-0.01,0.279-0.03v0.32c-0.1,0.026-0.203,0.04-0.31,0.04
		c-0.153,0-0.275-0.021-0.365-0.061s-0.158-0.093-0.205-0.16c-0.047-0.066-0.078-0.145-0.095-0.234s-0.025-0.188-0.025-0.295V69.225
		z M70.779,67.325c-0.093,0.113-0.234,0.189-0.425,0.229c-0.189,0.04-0.401,0.07-0.635,0.09l-0.641,0.061
		c-0.187,0.02-0.373,0.048-0.56,0.085c-0.187,0.036-0.354,0.099-0.505,0.185c-0.15,0.087-0.271,0.205-0.365,0.355
		c-0.094,0.149-0.14,0.345-0.14,0.585c0,0.38,0.12,0.661,0.359,0.845c0.24,0.184,0.57,0.275,0.99,0.275
		c0.434,0,0.776-0.078,1.03-0.235c0.253-0.156,0.446-0.337,0.58-0.54c0.133-0.203,0.218-0.399,0.255-0.59
		c0.036-0.19,0.055-0.318,0.055-0.385V67.325z"/>
	<path fill="#666666" d="M74.43,70.245h-0.47l-2.069-5.141h0.439l1.86,4.7h0.02l1.74-4.7h0.42L74.43,70.245z"/>
	<path fill="#666666" d="M77.149,67.725v0.061c0,0.3,0.04,0.587,0.12,0.859c0.08,0.273,0.199,0.514,0.355,0.721
		c0.157,0.206,0.354,0.37,0.592,0.489c0.237,0.12,0.514,0.181,0.827,0.181c0.515,0,0.923-0.136,1.224-0.405s0.508-0.645,0.622-1.125
		h0.38c-0.113,0.6-0.358,1.06-0.735,1.38s-0.875,0.48-1.495,0.48c-0.38,0-0.712-0.068-0.995-0.205s-0.52-0.323-0.71-0.561
		c-0.189-0.236-0.331-0.517-0.425-0.84s-0.14-0.672-0.14-1.045c0-0.36,0.048-0.705,0.145-1.035s0.242-0.62,0.436-0.87
		s0.435-0.449,0.725-0.6s0.632-0.225,1.025-0.225c0.359,0,0.678,0.066,0.955,0.199c0.276,0.134,0.508,0.315,0.694,0.545
		c0.187,0.23,0.328,0.497,0.425,0.801c0.097,0.303,0.146,0.628,0.146,0.975c0,0.033-0.002,0.071-0.005,0.115
		c-0.004,0.043-0.005,0.078-0.005,0.104H77.149z M80.93,67.395c-0.014-0.279-0.061-0.545-0.141-0.795s-0.199-0.47-0.356-0.66
		c-0.157-0.189-0.348-0.341-0.571-0.454s-0.479-0.171-0.767-0.171c-0.308,0-0.579,0.059-0.812,0.176
		c-0.234,0.116-0.432,0.27-0.592,0.46c-0.16,0.189-0.284,0.411-0.371,0.665c-0.087,0.253-0.14,0.513-0.16,0.779H80.93z"/>
	<path fill="#666666" d="M82.681,66.245h0.029c0.047-0.167,0.132-0.323,0.255-0.471c0.124-0.146,0.273-0.272,0.45-0.38
		c0.177-0.106,0.373-0.188,0.59-0.245c0.217-0.056,0.442-0.081,0.676-0.074v0.38c-0.2-0.026-0.429-0.007-0.686,0.06
		c-0.257,0.067-0.502,0.214-0.735,0.44c-0.093,0.1-0.175,0.196-0.244,0.29c-0.07,0.093-0.129,0.196-0.176,0.31
		c-0.046,0.113-0.083,0.24-0.109,0.38c-0.027,0.141-0.044,0.307-0.05,0.5v2.811H82.3v-5.141h0.381V66.245z"/>
	<path fill="#666666" d="M85.271,64.135v-1.03h0.38v1.03H85.271z M85.271,70.245v-5.141h0.38v5.141H85.271z"/>
	<path fill="#666666" d="M90.829,66.695c-0.02-0.227-0.078-0.427-0.175-0.601c-0.097-0.173-0.222-0.316-0.375-0.43
		s-0.332-0.2-0.535-0.26c-0.203-0.061-0.422-0.091-0.654-0.091c-0.32,0-0.604,0.065-0.851,0.195c-0.246,0.13-0.453,0.304-0.62,0.521
		c-0.166,0.217-0.293,0.463-0.38,0.739c-0.087,0.277-0.13,0.562-0.13,0.855c0,0.347,0.04,0.667,0.12,0.96s0.203,0.549,0.37,0.765
		c0.166,0.217,0.373,0.386,0.62,0.505c0.246,0.12,0.536,0.181,0.87,0.181c0.239,0,0.461-0.04,0.665-0.12
		c0.203-0.08,0.383-0.19,0.539-0.33c0.157-0.14,0.285-0.309,0.386-0.505c0.1-0.196,0.166-0.412,0.2-0.646h0.38
		c-0.04,0.307-0.124,0.58-0.25,0.82c-0.127,0.24-0.287,0.441-0.48,0.605c-0.193,0.163-0.413,0.288-0.66,0.375
		c-0.246,0.086-0.507,0.13-0.779,0.13c-0.421,0-0.779-0.075-1.075-0.226c-0.297-0.149-0.54-0.352-0.73-0.604
		c-0.189-0.254-0.33-0.545-0.42-0.875s-0.135-0.675-0.135-1.035s0.052-0.7,0.155-1.021c0.103-0.319,0.255-0.6,0.455-0.84
		c0.199-0.24,0.446-0.43,0.739-0.569c0.294-0.141,0.63-0.21,1.011-0.21c0.279,0,0.541,0.034,0.784,0.104
		c0.244,0.07,0.46,0.175,0.65,0.315c0.19,0.14,0.345,0.318,0.465,0.534c0.12,0.217,0.193,0.469,0.22,0.756H90.829z"/>
	<path fill="#666666" d="M92.271,63.104h0.38v4.73l3.17-2.73h0.55l-2.25,1.92l2.41,3.221h-0.52l-2.19-2.931l-1.17,0.99v1.94h-0.38
		V63.104z"/>
	<path fill="#666666" d="M97.16,68.535c0.013,0.239,0.066,0.451,0.16,0.635c0.093,0.184,0.215,0.34,0.364,0.47
		c0.15,0.13,0.325,0.229,0.525,0.295c0.2,0.067,0.417,0.101,0.65,0.101c0.166,0,0.345-0.016,0.534-0.045
		c0.19-0.03,0.367-0.085,0.53-0.165s0.299-0.191,0.405-0.335s0.16-0.325,0.16-0.545c0-0.287-0.087-0.504-0.261-0.65
		c-0.173-0.146-0.392-0.26-0.654-0.34c-0.264-0.08-0.547-0.146-0.851-0.195c-0.303-0.05-0.586-0.125-0.85-0.225
		c-0.264-0.101-0.481-0.242-0.655-0.425c-0.173-0.184-0.26-0.452-0.26-0.806c0-0.253,0.057-0.465,0.17-0.635
		s0.259-0.305,0.435-0.405c0.177-0.1,0.375-0.171,0.596-0.215c0.22-0.043,0.439-0.064,0.66-0.064c0.267,0,0.517,0.029,0.75,0.09
		c0.232,0.06,0.435,0.156,0.604,0.29c0.17,0.133,0.304,0.303,0.4,0.51s0.145,0.457,0.145,0.75h-0.38
		c0-0.233-0.038-0.434-0.115-0.601c-0.076-0.166-0.184-0.301-0.319-0.404c-0.137-0.104-0.299-0.181-0.485-0.23
		s-0.387-0.075-0.6-0.075c-0.174,0-0.349,0.018-0.525,0.051s-0.335,0.09-0.475,0.17c-0.141,0.08-0.256,0.184-0.346,0.31
		c-0.09,0.127-0.135,0.28-0.135,0.46c0,0.207,0.05,0.374,0.15,0.5c0.1,0.127,0.231,0.229,0.395,0.306
		c0.163,0.076,0.347,0.138,0.55,0.185c0.204,0.047,0.408,0.094,0.615,0.14c0.253,0.047,0.491,0.102,0.715,0.165
		s0.417,0.15,0.58,0.261c0.163,0.109,0.292,0.251,0.385,0.425c0.094,0.173,0.141,0.394,0.141,0.66c0,0.279-0.063,0.51-0.19,0.689
		s-0.286,0.325-0.479,0.436c-0.193,0.109-0.409,0.187-0.646,0.229s-0.468,0.065-0.694,0.065c-0.294,0-0.565-0.039-0.815-0.115
		c-0.25-0.077-0.469-0.193-0.655-0.351c-0.187-0.156-0.333-0.348-0.439-0.574c-0.107-0.227-0.164-0.49-0.17-0.79H97.16z"/>
</g>
</svg>
