<?xml version="1.0" encoding="UTF-8" standalone="no"?>
<!-- Generator: Adobe Illustrator 17.1.0, SVG Export Plug-In . SVG Version: 6.00 Build 0)  -->

<svg
   xmlns:dc="http://purl.org/dc/elements/1.1/"
   xmlns:cc="http://creativecommons.org/ns#"
   xmlns:rdf="http://www.w3.org/1999/02/22-rdf-syntax-ns#"
   xmlns:svg="http://www.w3.org/2000/svg"
   xmlns="http://www.w3.org/2000/svg"
   xmlns:sodipodi="http://sodipodi.sourceforge.net/DTD/sodipodi-0.dtd"
   xmlns:inkscape="http://www.inkscape.org/namespaces/inkscape"
   version="1.1"
   id="Laag_1"
   x="0px"
   y="0px"
   viewBox="52.5 -39.333 54.875 111.458"
   enable-background="new 52.5 -39.333 54.875 111.458"
   xml:space="preserve"
   inkscape:version="0.48.2 r9819"
   width="100%"
   height="100%"
   sodipodi:docname="beamer_madeformac_label.svg"><metadata
   id="metadata99"><rdf:RDF><cc:Work
       rdf:about=""><dc:format>image/svg+xml</dc:format><dc:type
         rdf:resource="http://purl.org/dc/dcmitype/StillImage" /></cc:Work></rdf:RDF></metadata><defs
   id="defs97" /><sodipodi:namedview
   pagecolor="#ffffff"
   bordercolor="#666666"
   borderopacity="1"
   objecttolerance="10"
   gridtolerance="10"
   guidetolerance="10"
   inkscape:pageopacity="0"
   inkscape:pageshadow="2"
   inkscape:window-width="640"
   inkscape:window-height="480"
   id="namedview95"
   showgrid="false"
   inkscape:zoom="2.1173895"
   inkscape:cx="27.4375"
   inkscape:cy="55.729"
   inkscape:window-x="0"
   inkscape:window-y="0"
   inkscape:window-maximized="0"
   inkscape:current-layer="Laag_1" />
<g
   id="g3">
	<g
   id="g5">
		<g
   opacity="0.5"
   id="g7">
			<g
   id="g9">
				<g
   id="g11">
					<path
   d="M96.588-18.232H63.469c-4.751,0-8.602,3.852-8.602,8.602v33.119c0,4.752,3.852,8.602,8.602,8.602h33.119       c4.751,0,8.602-3.851,8.602-8.602V-9.63C105.19-14.381,101.339-18.232,96.588-18.232 M96.588-17.619       c4.405,0,7.989,3.584,7.989,7.989v33.119c0,4.405-3.583,7.99-7.989,7.99H63.469c-4.405,0-7.989-3.584-7.989-7.99V-9.63       c0-4.405,3.583-7.989,7.989-7.989H96.588z"
   id="path13" />
				</g>
				<g
   id="g15">
					<path
   d="M76.517,8.298v0.029C76.511,8.339,76.504,8.349,76.5,8.36c-0.08,0.214-0.156,0.431-0.243,0.642       c-0.276,0.665-0.648,1.273-1.079,1.846c-0.266,0.354-0.544,0.697-0.905,0.961c-0.391,0.286-0.824,0.413-1.31,0.329       c-0.301-0.051-0.587-0.148-0.867-0.264c-0.406-0.168-0.825-0.286-1.269-0.281c-0.394,0.004-0.769,0.101-1.136,0.239       c-0.247,0.092-0.494,0.186-0.744,0.265c-0.487,0.153-0.953,0.106-1.376-0.19c-0.173-0.121-0.336-0.259-0.489-0.405       c-0.281-0.266-0.508-0.577-0.735-0.888c-0.944-1.298-1.498-2.747-1.684-4.338c-0.075-0.641-0.064-1.28,0.061-1.916       c0.168-0.856,0.53-1.615,1.163-2.225c0.665-0.641,1.461-0.986,2.391-0.992c0.392-0.003,0.763,0.116,1.128,0.244       c0.339,0.117,0.679,0.237,1.018,0.354c0.157,0.054,0.313,0.053,0.471-0.004c0.319-0.115,0.642-0.222,0.961-0.337       c0.36-0.13,0.726-0.236,1.106-0.284c0.329-0.041,0.654-0.006,0.979,0.054c0.677,0.127,1.28,0.401,1.778,0.887       c0.156,0.151,0.294,0.317,0.416,0.5c-0.025,0.018-0.044,0.032-0.065,0.045C75.659,2.87,75.3,3.19,75.035,3.605       c-0.493,0.769-0.574,1.607-0.39,2.481c0.153,0.727,0.553,1.304,1.126,1.767C75.999,8.035,76.243,8.192,76.517,8.298"
   id="path17" />
				</g>
				<g
   id="g19">
					<path
   d="M73.479-2.414c0.021,0.277,0.013,0.551-0.037,0.825c-0.103,0.569-0.358,1.066-0.721,1.51       c-0.315,0.385-0.686,0.701-1.155,0.885c-0.324,0.127-0.66,0.175-1.024,0.142c0-0.139-0.005-0.276,0.001-0.413       c0.028-0.67,0.299-1.241,0.713-1.754c0.497-0.615,1.146-0.98,1.91-1.157c0.069-0.016,0.139-0.025,0.209-0.038H73.479z"
   id="path21" />
				</g>
				<g
   id="g23">
					
				</g>
			</g>
		</g>
	</g>
</g>
<g
   id="g27">
	<rect
   x="52.5"
   y="-34.732"
   fill="none"
   width="54.875"
   height="33"
   id="rect29" />
	<path
   fill="#666666"
   d="M56.945-34.732h0.592v4.944h0.032c0.117-0.32,0.283-0.6,0.497-0.84c0.214-0.24,0.46-0.443,0.738-0.608   c0.277-0.165,0.577-0.288,0.897-0.368c0.321-0.08,0.652-0.12,0.994-0.12c0.61,0,1.137,0.107,1.58,0.32   c0.443,0.214,0.815,0.507,1.114,0.88c0.3,0.374,0.521,0.808,0.666,1.304s0.217,1.032,0.217,1.608c0,0.982-0.134,1.768-0.401,2.36   c-0.268,0.592-0.588,1.045-0.962,1.36c-0.374,0.315-0.765,0.523-1.171,0.624s-0.754,0.152-1.043,0.152   c-0.545,0-1.008-0.085-1.387-0.256c-0.38-0.17-0.692-0.371-0.938-0.6c-0.246-0.229-0.433-0.456-0.562-0.68   c-0.128-0.224-0.208-0.389-0.24-0.496h-0.031v1.84h-0.593V-34.732z M60.697-23.645c0.546,0,1.005-0.117,1.38-0.352   c0.374-0.234,0.679-0.542,0.914-0.92s0.406-0.805,0.514-1.28c0.106-0.474,0.16-0.946,0.16-1.416c0-0.458-0.062-0.901-0.185-1.328   s-0.31-0.808-0.562-1.144c-0.251-0.336-0.562-0.605-0.93-0.808c-0.369-0.203-0.8-0.304-1.292-0.304c-0.534,0-1,0.091-1.396,0.272   c-0.396,0.182-0.722,0.432-0.979,0.752c-0.257,0.32-0.449,0.699-0.577,1.136c-0.129,0.438-0.192,0.912-0.192,1.424   c0,0.501,0.059,0.992,0.176,1.472c0.118,0.48,0.303,0.904,0.554,1.272s0.575,0.664,0.971,0.888   C59.649-23.757,60.131-23.645,60.697-23.645z"
   id="path31" />
	<path
   fill="#666666"
   d="M72.209-23.309h-0.608v-1.76h-0.032c-0.106,0.309-0.259,0.584-0.456,0.824   c-0.197,0.24-0.427,0.445-0.688,0.616c-0.262,0.17-0.547,0.298-0.856,0.384c-0.309,0.085-0.624,0.128-0.943,0.128   c-0.48,0-0.889-0.059-1.225-0.176s-0.61-0.272-0.823-0.464c-0.214-0.192-0.382-0.408-0.504-0.648   c-0.123-0.24-0.211-0.482-0.265-0.728c-0.054-0.245-0.085-0.482-0.096-0.712c-0.011-0.229-0.016-0.429-0.016-0.6v-5.088h0.607v5.2   c0,0.213,0.016,0.472,0.048,0.776c0.032,0.304,0.126,0.598,0.28,0.88c0.154,0.283,0.387,0.526,0.696,0.728   c0.309,0.203,0.746,0.304,1.312,0.304c0.459,0,0.872-0.085,1.24-0.256c0.368-0.171,0.68-0.408,0.936-0.712   c0.257-0.304,0.451-0.667,0.584-1.088c0.134-0.421,0.2-0.882,0.2-1.384v-4.448h0.608V-23.309z"
   id="path33" />
	<path
   fill="#666666"
   d="M74.145-33.084v-1.648h0.608v1.648H74.145z M74.145-23.309v-8.224h0.608v8.224H74.145z"
   id="path35" />
	<path
   fill="#666666"
   d="M77.441-34.732v11.424h-0.608v-11.424H77.441z"
   id="path37" />
	<path
   fill="#666666"
   d="M82.4-31.004h-1.792v5.744c0,0.331,0.037,0.592,0.112,0.784c0.074,0.192,0.189,0.339,0.344,0.44   c0.154,0.102,0.341,0.163,0.56,0.184s0.473,0.027,0.761,0.016v0.528c-0.31,0.021-0.611,0.019-0.904-0.008   c-0.294-0.027-0.552-0.106-0.776-0.24c-0.224-0.133-0.402-0.333-0.535-0.6c-0.134-0.266-0.19-0.634-0.169-1.104v-5.744h-1.52   v-0.528H80v-2.56h0.608v2.56H82.4V-31.004z"
   id="path39" />
	<path
   fill="#666666"
   d="M87.072-31.004v-0.528h1.472v-1.696c0-0.288,0.048-0.536,0.145-0.744c0.096-0.208,0.227-0.376,0.392-0.504   s0.357-0.224,0.576-0.288s0.45-0.096,0.696-0.096c0.181,0,0.421,0.026,0.72,0.08v0.528c-0.299-0.053-0.539-0.08-0.72-0.08   c-0.342,0-0.627,0.078-0.856,0.232c-0.229,0.155-0.344,0.461-0.344,0.92v1.648h1.712v0.528h-1.712v7.696h-0.608v-7.696H87.072z"
   id="path41" />
	<path
   fill="#666666"
   d="M91.439-27.42c0-0.587,0.083-1.139,0.248-1.656c0.165-0.517,0.408-0.973,0.729-1.368   c0.319-0.394,0.714-0.706,1.184-0.936s1.008-0.344,1.616-0.344s1.146,0.115,1.616,0.344c0.469,0.229,0.863,0.542,1.184,0.936   c0.32,0.395,0.562,0.851,0.729,1.368c0.165,0.518,0.248,1.069,0.248,1.656c0,0.586-0.083,1.141-0.248,1.664   c-0.166,0.523-0.408,0.979-0.729,1.368c-0.32,0.39-0.715,0.699-1.184,0.928c-0.47,0.229-1.008,0.344-1.616,0.344   s-1.146-0.115-1.616-0.344c-0.47-0.229-0.864-0.539-1.184-0.928c-0.32-0.389-0.563-0.845-0.729-1.368   C91.522-26.279,91.439-26.834,91.439-27.42z M92.048-27.42c0,0.491,0.069,0.962,0.208,1.416c0.139,0.453,0.341,0.856,0.607,1.208   c0.267,0.352,0.598,0.632,0.992,0.84s0.849,0.312,1.36,0.312s0.965-0.104,1.36-0.312c0.395-0.208,0.725-0.488,0.991-0.84   c0.267-0.352,0.47-0.755,0.608-1.208c0.139-0.454,0.208-0.925,0.208-1.416s-0.069-0.963-0.208-1.416   c-0.139-0.454-0.342-0.856-0.608-1.208s-0.597-0.632-0.991-0.84c-0.396-0.208-0.849-0.312-1.36-0.312s-0.966,0.104-1.36,0.312   s-0.726,0.488-0.992,0.84s-0.469,0.754-0.607,1.208C92.117-28.383,92.048-27.911,92.048-27.42z"
   id="path43" />
	<path
   fill="#666666"
   d="M101.023-29.708h0.048c0.075-0.267,0.211-0.518,0.408-0.752c0.197-0.235,0.438-0.438,0.72-0.608   c0.283-0.171,0.598-0.301,0.944-0.392s0.706-0.131,1.08-0.12v0.608c-0.32-0.042-0.686-0.01-1.096,0.096   c-0.411,0.106-0.803,0.341-1.177,0.704c-0.149,0.16-0.279,0.314-0.392,0.464s-0.205,0.314-0.28,0.496   c-0.074,0.181-0.133,0.384-0.176,0.608s-0.069,0.491-0.08,0.8v4.496h-0.607v-8.224h0.607V-29.708z"
   id="path45" />
</g>
<g
   id="g47">
	<rect
   x="55.48"
   y="-1.365"
   fill="none"
   width="39.645"
   height="33"
   id="rect49" />
	<path
   fill="#666666"
   d="M85.591,2.456v1.023h-2.026v6.716c0,0.399,0.055,0.711,0.164,0.936c0.109,0.226,0.383,0.351,0.82,0.376   c0.348,0,0.695-0.019,1.042-0.058v1.023c-0.18,0-0.36,0.006-0.54,0.019c-0.181,0.013-0.36,0.02-0.54,0.02   c-0.812,0-1.377-0.158-1.699-0.473c-0.321-0.315-0.476-0.897-0.463-1.747V3.479h-1.737V2.456h1.737v-2.991h1.216v2.991H85.591z"
   id="path51" />
	<path
   fill="#666666"
   d="M87.579,2.456l3.127,8.743h0.038l3.088-8.743h1.255l-3.725,9.959h-1.294l-3.84-9.959H87.579z"
   id="path53" />
</g>
<g
   id="g55">
	<rect
   x="59.575"
   y="44.948"
   fill="none"
   width="47.8"
   height="11.385"
   id="rect57" />
	
	
	
	
	
	
	
</g>
<g
   id="g73">
	<rect
   x="52.475"
   y="63.105"
   fill="none"
   width="54.9"
   height="11.385"
   id="rect75" />
	
	
	
	
	
	
	
	
	
</g>
</svg>